{"asset":{"generator":"glTF-Transform v3.5.1","version":"2.0"},"accessors":[{"type":"VEC3","componentType":5126,"count":300000,"max":[0.1253821700811386,0.18922871351242065,0.15222354233264923],"min":[-0.12538215517997742,-7.450580596923828e-9,-0.15222354233264923],"bufferView":0,"byteOffset":0},{"type":"VEC2","componentType":5126,"count":300000,"bufferView":1,"byteOffset":0},{"type":"VEC3","componentType":5126,"count":300000,"bufferView":2,"byteOffset":0},{"type":"VEC3","componentType":5126,"count":300000,"max":[0.1253821700811386,0.18922871351242065,0.15222354233264923],"min":[-0.12538215517997742,-7.450580596923828e-9,-0.15222354233264923],"bufferView":3,"byteOffset":0},{"type":"VEC2","componentType":5126,"count":300000,"bufferView":4,"byteOffset":0},{"type":"VEC3","componentType":5126,"count":300000,"bufferView":5,"byteOffset":0}],"bufferViews":[{"buffer":0,"byteOffset":0,"byteLength":3600000,"byteStride":12,"target":34962},{"buffer":0,"byteOffset":3600000,"byteLength":2400000,"byteStride":8,"target":34962},{"buffer":0,"byteOffset":6000000,"byteLength":3600000,"byteStride":12,"target":34962},{"buffer":0,"byteOffset":9600000,"byteLength":3600000,"byteStride":12,"target":34962},{"buffer":0,"byteOffset":13200000,"byteLength":2400000,"byteStride":8,"target":34962},{"buffer":0,"byteOffset":15600000,"byteLength":3600000,"byteStride":12,"target":34962}],"samplers":[{"magFilter":9729,"minFilter":9987,"wrapS":10497,"wrapT":10497}],"textures":[{"source":1,"sampler":0},{"source":0,"sampler":0}],"images":[{"mimeType":"image/png","uri":"metallicRoughness_1.png"},{"mimeType":"image/png","uri":"baseColor_1.png"}],"buffers":[{"uri":"test.bin","byteLength":19200000}],"materials":[{"pbrMetallicRoughness":{"baseColorTexture":{"index":0},"metallicRoughnessTexture":{"index":1}}}],"meshes":[{"primitives":[{"attributes":{"POSITION":0,"TEXCOORD_0":1,"TEXCOORD_1":1,"NORMAL":2},"mode":4,"material":0}]},{"primitives":[{"attributes":{"POSITION":3,"TEXCOORD_0":4,"TEXCOORD_1":4,"NORMAL":5},"mode":4,"material":0}]}],"nodes":[{"mesh":0},{"mesh":1},{"children":[0,1]}],"scenes":[{"name":"AuxScene","nodes":[2]}],"scene":0}